<svg xmlns="http://www.w3.org/2000/svg" version="1.1" viewBox="-5.0 -10.0 110.0 135.0">
 <path d="m78.172 72.359-1.8789-0.47656c-0.22656-0.76172-0.53125-1.4961-0.91406-2.1953l0.99219-1.6641c0.22656-0.38281 0.19922-0.86719-0.066406-1.2227-0.76172-1.0039-1.6641-1.9062-2.6797-2.6797-0.35547-0.26953-0.83984-0.29688-1.2227-0.070313l-1.6641 0.99219c-0.70312-0.38281-1.4414-0.6875-2.1992-0.91406l-0.47266-1.8711c-0.10938-0.43359-0.46875-0.75391-0.91016-0.81641-1.2383-0.17188-2.5625-0.17188-3.7969 0-0.44141 0.0625-0.80078 0.38672-0.91016 0.81641l-0.47266 1.8711c-0.76172 0.22656-1.5 0.53125-2.1992 0.91406l-1.6641-0.99219c-0.046875-0.027343-0.09375-0.050781-0.14453-0.070312v-15.035c0-0.60547-0.48828-1.0938-1.0938-1.0938h-8.9297c-0.60547 0-1.0938 0.48828-1.0938 1.0938v26.227h-4.7734v-37.473c0-0.60547-0.48828-1.0938-1.0938-1.0938h-8.9297c-0.60547 0-1.0938 0.48828-1.0938 1.0938v37.473h-4.7734v-19.324c0-0.60547-0.48828-1.0938-1.0938-1.0938h-8.9297c-0.60547 0-1.0938 0.48828-1.0938 1.0938v19.324h-3.3555c-0.60547 0-1.0938 0.48828-1.0938 1.0938v4.2188c0 0.60547 0.48828 1.0938 1.0938 1.0938h42.871l-0.44141 0.73828c-0.23047 0.38281-0.19922 0.86719 0.070313 1.2227 0.77344 1.0117 1.6758 1.9141 2.6797 2.6758 0.35547 0.26953 0.83984 0.29688 1.2227 0.066406l1.6602-0.98828c0.69922 0.37891 1.4375 0.68359 2.2031 0.91016l0.47266 1.8789c0.10938 0.43359 0.47266 0.75781 0.91406 0.81641 0.62891 0.085937 1.2617 0.125 1.8945 0.125 0.63281 0 1.2656-0.042969 1.8906-0.125 0.44531-0.058594 0.80859-0.38281 0.91406-0.81641l0.47266-1.875c0.76563-0.22656 1.5039-0.53125 2.2031-0.91016l1.6602 0.98828c0.38281 0.22656 0.86719 0.20312 1.2227-0.066406 1.0078-0.76172 1.9102-1.6641 2.6797-2.6758 0.26953-0.35547 0.29687-0.83984 0.070312-1.2227l-0.99219-1.6641c0.38281-0.69922 0.6875-1.4375 0.91406-2.1992l1.875-0.47266c0.43359-0.10938 0.75391-0.46875 0.81641-0.91016 0.085938-0.61719 0.12891-1.2578 0.12891-1.9023s-0.042969-1.2773-0.12891-1.8945c-0.0625-0.44141-0.38281-0.80078-0.8125-0.91016zm-29.133-22.324h6.7422v15.02c-0.57422 0.53906-1.1016 1.1211-1.5703 1.7422-0.26953 0.35547-0.29688 0.83984-0.066407 1.2227l0.99219 1.6641c-0.37891 0.69922-0.68359 1.4336-0.91016 2.1953l-1.8789 0.47656c-0.43359 0.10938-0.75781 0.47266-0.81641 0.91797-0.085938 0.66016-0.12891 1.2773-0.12891 1.8867v0.003906h-2.3594v-25.133zm-15.891-11.246h6.7422v36.379h-6.7422zm-15.895 18.148h6.7422v18.23h-6.7422zm-4.4492 22.449v-2.0273h38.809c0.13281 0.30469 0.40234 0.53516 0.73438 0.61719l1.8789 0.47266c0.09375 0.32031 0.20703 0.63281 0.32813 0.9375zm64.09-3.3477-1.7578 0.44141c-0.39844 0.10156-0.70312 0.41406-0.79688 0.8125-0.23047 0.98438-0.62109 1.9219-1.1562 2.7773-0.21875 0.34766-0.22266 0.78906-0.011719 1.1406l0.93359 1.5625c-0.38281 0.44141-0.79297 0.85547-1.2344 1.2344l-1.5625-0.92969c-0.35156-0.21094-0.78906-0.20312-1.1367 0.011719-0.85938 0.53516-1.7969 0.92188-2.7852 1.1523-0.39844 0.09375-0.71094 0.40234-0.8125 0.79687l-0.44141 1.7617c-0.57812 0.042969-1.1641 0.042969-1.7461 0l-0.44141-1.7617c-0.10156-0.39844-0.41406-0.70312-0.8125-0.79687-0.99219-0.23047-1.9297-0.62109-2.7852-1.1523-0.34766-0.21484-0.78516-0.21875-1.1367-0.011719l-1.5625 0.92969c-0.44141-0.37891-0.85156-0.78906-1.2344-1.2344l0.93359-1.5547c0.21094-0.35156 0.20703-0.79297-0.007812-1.1406-0.53125-0.85938-0.92188-1.7969-1.1523-2.7852-0.09375-0.39844-0.40234-0.71094-0.79688-0.8125l-1.7617-0.44141c-0.023437-0.30078-0.035156-0.58984-0.035156-0.875 0-0.28516 0.011719-0.57422 0.035156-0.87109l1.7617-0.44531c0.39844-0.10156 0.70312-0.41406 0.79688-0.8125 0.23047-0.98438 0.61719-1.9219 1.1523-2.7812 0.21875-0.34766 0.21875-0.78906 0.007812-1.1406l-0.93359-1.5586c0.37891-0.44141 0.79297-0.85156 1.2383-1.2344l1.5586 0.93359c0.35156 0.21094 0.79297 0.20703 1.1406-0.007812 0.86719-0.53906 1.8047-0.92578 2.7852-1.1562 0.39844-0.09375 0.71094-0.40234 0.8125-0.79688l0.44141-1.7578c0.57422-0.042968 1.168-0.042968 1.7461 0l0.44141 1.7578c0.10156 0.39844 0.41406 0.70312 0.8125 0.79688 0.98047 0.22656 1.918 0.61719 2.7852 1.1562 0.34766 0.21484 0.78906 0.21875 1.1406 0.007812l1.5586-0.93359c0.44531 0.38281 0.85547 0.79688 1.2344 1.2344l-0.93359 1.5586c-0.21094 0.35156-0.20703 0.79297 0.007813 1.1406 0.53906 0.86719 0.92969 1.8008 1.1562 2.7812 0.09375 0.39844 0.40234 0.71094 0.79688 0.8125l1.7578 0.44531c0.023438 0.28906 0.03125 0.57812 0.03125 0.87109 0 0.29297-0.011719 0.58594-0.03125 0.875zm-11.637-7.7969c-3.8203 0-6.9258 3.1055-6.9258 6.9219 0 3.8164 3.1055 6.9219 6.9258 6.9219 3.8203 0 6.9219-3.1055 6.9219-6.9219 0-3.8164-3.1055-6.9219-6.9219-6.9219zm0 11.656c-2.6133 0-4.7383-2.125-4.7383-4.7344 0-2.6094 2.125-4.7344 4.7383-4.7344 2.6133 0 4.7344 2.125 4.7344 4.7344 0 2.6094-2.125 4.7344-4.7344 4.7344zm24.594-54.086c-0.28125-0.48828-0.88672-0.68359-1.3984-0.44922l-0.003906 0.003907c-1.2109-1.875-2.6172-3.6211-4.1953-5.1992-6.4961-6.4922-15.477-9.8047-24.637-9.0859-0.60156 0.046875-1.0508 0.57422-1.0039 1.1758 0.046875 0.60156 0.57422 1.0508 1.1758 1.0039 8.5195-0.66797 16.871 2.4102 22.918 8.4531 1.3906 1.3906 2.6406 2.9219 3.7266 4.5625l-2.8555 1.2891c-0.90234-1.3086-1.9258-2.5391-3.0547-3.6719-5.0977-5.0977-11.801-7.6406-18.496-7.6289-0.097656-0.011719-0.19922-0.011719-0.30078 0.003906-6.5625 0.089844-13.098 2.6289-18.094 7.625l-0.91797 0.91797c-0.42578 0.42578-0.42578 1.1211 0 1.5469l6.3047 6.3086c0.20312 0.20312 0.48438 0.32031 0.77344 0.32031 0.28906 0 0.56641-0.11328 0.77344-0.32031l0.92188-0.92188c2.8281-2.8281 6.5898-4.3867 10.594-4.3867 4.0039 0 7.7617 1.5586 10.594 4.3867 0.17188 0.17188 0.33594 0.34766 0.49609 0.52344l-9.0625 4.0977c-1.5195-0.26953-3.1445 0.17969-4.3164 1.3516-0.92578 0.92188-1.4336 2.1484-1.4336 3.4531 0 1.3086 0.50781 2.5391 1.4336 3.4648 0.95312 0.94922 2.2031 1.4258 3.457 1.4258s2.5039-0.47656 3.4609-1.4258c0.52344-0.52734 0.90234-1.1406 1.1367-1.8008l8.2148-5.8984c0.47656 1.2344 0.78125 2.5078 0.92188 3.7891 0 0.054688 0.007813 0.10547 0.015625 0.16016 0.42578 4.3711-1.0859 8.8164-4.3203 12.047l-0.91797 0.91797c-0.42578 0.42578-0.42578 1.1211 0 1.5469l6.3047 6.3086c0.20312 0.20312 0.48438 0.32031 0.77344 0.32031 0.28906 0 0.56641-0.11328 0.77344-0.32031l0.92188-0.92188c4.918-4.918 7.5273-11.461 7.625-18.098 0.015625-0.10156 0.015625-0.20312 0.003906-0.30078 0.011719-4.1133-0.94141-8.25-2.9102-12.051l4.2969-3.0859c0.45703-0.32812 0.58984-0.94922 0.30859-1.4375zm-27.77-0.64453c-4.5859 0-8.8984 1.7852-12.141 5.0273l-0.14844 0.14844-4.7578-4.7578 0.14453-0.14453c4.3867-4.3867 10.066-6.707 15.82-6.9648l1.3633 6.6953c-0.097656-0.003906-0.19141-0.003906-0.28906-0.003906zm2.5586 0.1875-1.4023-6.8789c5.7305 0.27344 11.379 2.5938 15.742 6.9609 0.94141 0.94141 1.8047 1.9609 2.5742 3.0391l-6.3008 2.8477c-0.32812-0.39062-0.67188-0.76953-1.0312-1.1328-2.6328-2.6328-5.9648-4.3047-9.582-4.8398zm0.51953 17.73c-1.0547 1.0508-2.7695 1.0508-3.8203 0-0.51172-0.51172-0.79297-1.1914-0.79297-1.9141s0.28125-1.3984 0.79297-1.9062c0.52734-0.52734 1.2188-0.78906 1.9102-0.78906s1.3828 0.26172 1.9102 0.78906c1.0508 1.0508 1.0508 2.7656 0 3.8203zm10.785-8.7656c-0.042968 0.027344-0.082031 0.054688-0.12109 0.085938l-7.8242 5.6211c-0.20312-0.84766-0.63281-1.6523-1.293-2.3125-0.027343-0.027344-0.058593-0.058594-0.089843-0.085938l8.7461-3.9531c0.019531-0.007812 0.035157-0.015625 0.054688-0.023437l3.9258-1.7734zm3.0352 24.914-0.14844 0.14844-4.7578-4.7578 0.14453-0.14453c3.3633-3.3633 5.1016-7.875 5.0273-12.426l6.6953 1.3633c-0.26953 5.8164-2.6445 11.5-6.9609 15.816zm6.9648-18.051-6.8828-1.4023c-0.21094-1.4102-0.60156-2.8086-1.1758-4.1602l5.5625-3.9961c1.5195 3.0312 2.3438 6.2891 2.4961 9.5586zm-70.879-12.734v18.207c0 0.60547 0.48828 1.0938 1.0938 1.0938h8.9297c0.60547 0 1.0938-0.48828 1.0938-1.0938v-18.207h3.9766c0.4375 0 0.83203-0.26172 1.0039-0.66406 0.17188-0.40234 0.089844-0.86719-0.21484-1.1836l-9.5352-10.027c-0.20703-0.21875-0.49219-0.33984-0.79297-0.33984-0.30078 0-0.58594 0.12109-0.79297 0.33984l-9.5312 10.027c-0.30078 0.31641-0.38672 0.78125-0.21094 1.1836 0.17187 0.40234 0.56641 0.66406 1.0039 0.66406zm5.5586-9.5352 6.9844 7.3477h-2.5195c-0.60547 0-1.0938 0.48828-1.0938 1.0938v18.207h-6.7422v-18.207c0-0.60547-0.48828-1.0938-1.0938-1.0938h-2.5195l6.9805-7.3477z"/></svg>