<svg xmlns="http://www.w3.org/2000/svg" version="1.1" viewBox="-5.0 -10.0 110.0 135.0">
 <path d="m97.852 36.672h-95.703c-0.64844 0-1.1719-0.52734-1.1719-1.1719v-11.461c0.003907-4.6797 3.8008-8.4727 8.4844-8.4766h81.082c4.6797 0.003906 8.4766 3.7969 8.4805 8.4766v11.461c0 0.64453-0.52344 1.1719-1.1719 1.1719zm-94.531-2.3438h93.359v-10.289c-0.003907-3.3867-2.75-6.1328-6.1367-6.1328h-81.082c-3.3906 0-6.1367 2.7461-6.1406 6.1328z"/>
 <path d="m90.543 84.438h-81.082c-4.6836-0.003906-8.4805-3.7969-8.4844-8.4766v-16.82c0-0.64844 0.52344-1.1719 1.1719-1.1719 0.64844 0 1.1719 0.52344 1.1719 1.1719v16.82c0.003907 3.3867 2.75 6.1328 6.1406 6.1328l81.082 0.003906c3.3867-0.007812 6.1328-2.75 6.1367-6.1367v-39.289h-93.359v13.328c0 0.64844-0.52344 1.1719-1.1719 1.1719-0.64844 0-1.1719-0.52344-1.1719-1.1719v-14.5c0-0.64844 0.52344-1.1719 1.1719-1.1719h95.703c0.64844 0 1.1719 0.52344 1.1719 1.1719v40.461c-0.003907 4.6797-3.8008 8.4727-8.4805 8.4766z"/>
 <path d="m2.1484 56.621c-0.64844 0-1.1719-0.52344-1.1719-1.1719v-1.7578c0-0.64844 0.52344-1.1719 1.1719-1.1719 0.64844 0 1.1719 0.52344 1.1719 1.1719v1.7578c0 0.64844-0.52344 1.1719-1.1719 1.1719z"/>
 <path d="m15.098 31.195c-2.0547 0-3.9062-1.2383-4.6953-3.1367-0.78516-1.8984-0.35156-4.082 1.1016-5.5352 1.4531-1.4531 3.6367-1.8867 5.5352-1.1016 1.8984 0.78906 3.1328 2.6406 3.1328 4.6953 0 2.8008-2.2734 5.0781-5.0781 5.0781zm0-7.8125c-1.1094 0-2.1055 0.66406-2.5273 1.6875-0.42578 1.0195-0.19141 2.1953 0.59375 2.9766 0.78125 0.78516 1.957 1.0195 2.9766 0.59375 1.0234-0.42188 1.6875-1.418 1.6914-2.5234h-0.003906c0-0.72656-0.28516-1.4219-0.80078-1.9336-0.51172-0.51562-1.207-0.80469-1.9336-0.80469z"/>
 <path d="m26.812 31.195c-2.0508 0-3.9023-1.2383-4.6914-3.1367-0.78516-1.8984-0.35156-4.082 1.1016-5.5352 1.4531-1.4531 3.6367-1.8867 5.5352-1.1016 1.8984 0.78906 3.1328 2.6406 3.1328 4.6953 0 2.8008-2.2734 5.0781-5.0781 5.0781zm0-7.8125c-1.1055 0-2.1016 0.66406-2.5234 1.6875-0.42578 1.0195-0.19141 2.1953 0.59375 2.9766 0.78125 0.78516 1.957 1.0195 2.9766 0.59375 1.0234-0.42188 1.6875-1.418 1.6875-2.5234 0-0.72656-0.28516-1.4219-0.80078-1.9336-0.51172-0.51562-1.207-0.80469-1.9336-0.80469z"/>
 <path d="m84.906 31.195h-33.207c-2.8008 0-5.0781-2.2773-5.0781-5.0781 0-2.8047 2.2773-5.0781 5.0781-5.0781h33.207c2.8008 0 5.0781 2.2734 5.0781 5.0781 0 2.8008-2.2773 5.0781-5.0781 5.0781zm-33.203-7.8125h-0.003906c-1.5078 0-2.7344 1.2227-2.7344 2.7344 0 1.5078 1.2266 2.7344 2.7344 2.7344h33.207c1.5078 0 2.7344-1.2266 2.7344-2.7344 0-1.5117-1.2266-2.7344-2.7344-2.7344z"/>
 <path d="m88.934 55.941h-33.27c-0.64844 0-1.1719-0.52344-1.1719-1.1719v-8.7773c0.007812-2.4258 1.9766-4.3906 4.4023-4.3906h7.8125c1.2305-0.003906 2.375 0.62891 3.0195 1.6758l1.3672 2.2305c0.082031 0.12891 0.22266 0.20703 0.375 0.21094h15.727c1.6016 0 2.9023 1.3008 2.9062 2.9062v6.1562-0.003906c-0.003906 0.64453-0.52344 1.1602-1.168 1.1641zm-32.098-2.3438h30.926v-4.9805c0-0.3125-0.25391-0.56641-0.56641-0.5625h-15.727c-0.96094 0-1.8594-0.5-2.3672-1.3203l-1.3672-2.2266c-0.22266-0.35547-0.61328-0.57031-1.0352-0.5625h-7.8125c-1.1289 0.003907-2.0469 0.91797-2.0508 2.0469z"/>
 <path d="m85.977 55.941h-27.344c-0.64844 0-1.1719-0.52344-1.1719-1.1719v-3.207c0.003906-1.4883 1.207-2.6914 2.6953-2.6992h24.285c1.4922 0 2.7031 1.207 2.707 2.6992v3.2031c0 0.30859-0.12109 0.60938-0.33984 0.83203-0.22266 0.21875-0.51953 0.34375-0.83203 0.34375zm-26.172-2.3438h25v-2.0352c0-0.097656-0.039063-0.1875-0.10547-0.25781-0.070313-0.066407-0.16016-0.10547-0.25781-0.10156l-24.285-0.003906c-0.19922 0-0.35938 0.16406-0.35938 0.36328z"/>
 <path d="m85.383 72.574h-26.164c-2.6094-0.003907-4.7227-2.1172-4.7266-4.7227v-13.086c0-0.64844 0.52344-1.1719 1.1719-1.1719h33.27c0.64844 0 1.1719 0.52344 1.1719 1.1719v13.086c-0.003907 2.6055-2.1172 4.7188-4.7227 4.7227zm-28.547-16.633v11.914c0.003906 1.3125 1.0664 2.3789 2.3828 2.3789h26.172c1.3125 0 2.375-1.0664 2.3789-2.3789v-11.914z"/>
 <path d="m44.336 55.941h-33.27c-0.64844 0-1.1719-0.52344-1.1719-1.1719v-8.7773c0.007813-2.4258 1.9727-4.3867 4.4023-4.3906h7.8125c1.2305-0.003906 2.375 0.63281 3.0195 1.6836l1.3672 2.2227c0.082031 0.12891 0.22266 0.20703 0.37109 0.21094h15.73c1.6016-0.003906 2.9023 1.293 2.9102 2.8984v6.1562-0.003907c0 0.64844-0.52344 1.1719-1.1719 1.1719zm-32.094-2.3438h30.922v-4.9805c0-0.3125-0.25-0.5625-0.5625-0.5625h-15.73c-0.96484 0-1.8594-0.5-2.3633-1.3203l-1.3672-2.2266c-0.21875-0.35547-0.60938-0.57422-1.0273-0.57031h-7.8125c-1.1367 0-2.0586 0.92188-2.0586 2.0547z"/>
 <path d="m41.375 55.941h-27.352c-0.64844 0-1.1719-0.52344-1.1719-1.1719v-3.207c0.003907-1.4922 1.2148-2.7031 2.707-2.7031h24.285c1.4922 0 2.7031 1.2109 2.7031 2.7031v3.2031c0.003906 0.30859-0.12109 0.60938-0.33984 0.83203-0.21875 0.21875-0.51953 0.34375-0.83203 0.34375zm-26.172-2.3438h25v-2.0352c0-0.097656-0.035156-0.1875-0.10547-0.25391-0.066406-0.070313-0.15625-0.10547-0.25391-0.10547l-24.285-0.003906c-0.097656 0-0.1875 0.039062-0.25781 0.10547-0.066406 0.070312-0.10547 0.16016-0.10547 0.25781z"/>
 <path d="m40.781 72.574h-26.172c-2.6094-0.003907-4.7227-2.1172-4.7227-4.7227v-13.086c0-0.64844 0.52344-1.1719 1.1719-1.1719h33.277c0.64844 0 1.1719 0.52344 1.1719 1.1719v13.086c-0.003906 2.6055-2.1172 4.7188-4.7266 4.7227zm-28.543-16.633v11.914c0.003907 1.3125 1.0664 2.3789 2.3789 2.3789h26.172c1.3164-0.003906 2.375-1.0703 2.375-2.3828v-11.914z"/>
 <path d="m83.727 77.172h-22.852c-0.64844 0-1.1719-0.52344-1.1719-1.1719s0.52344-1.1719 1.1719-1.1719h22.852c0.64453 0 1.1719 0.52344 1.1719 1.1719s-0.52734 1.1719-1.1719 1.1719z"/>
 <path d="m39.125 77.172h-22.852c-0.64844 0-1.1719-0.52344-1.1719-1.1719s0.52344-1.1719 1.1719-1.1719h22.852c0.64844 0 1.1719 0.52344 1.1719 1.1719s-0.52344 1.1719-1.1719 1.1719z"/>
</svg>